<svg  width="100" version="1.1" id="Layer_1" xmlns="http://www.w3.org/2000/svg" xmlns:xlink="http://www.w3.org/1999/xlink" x="0px" y="0px" viewBox="0 0 512 512" style="enable-background:new 0 0 512 512;" xml:space="preserve"><g><g><g><path d="M501.333,170.664h-90.388L296.792,4.622c-3.333-4.865-9.958-6.063-14.833-2.75c-4.854,3.344-6.083,9.979-2.75,14.833 l105.846,153.958H126.945L232.792,16.705c3.333-4.854,2.104-11.49-2.75-14.833c-4.833-3.313-11.479-2.115-14.833,2.75 L101.055,170.664H10.667C4.771,170.664,0,175.434,0,181.33c0,5.896,4.771,10.667,10.667,10.667h13.772l62.165,177.625 c7.479,21.354,27.708,35.708,50.333,35.708h2.27c5.415,59.711,55.706,106.667,116.793,106.667s111.378-46.956,116.793-106.667 h2.27c22.625,0,42.854-14.354,50.333-35.719l62.165-177.615h13.772c5.896,0,10.667-4.771,10.667-10.667 C512,175.434,507.229,170.664,501.333,170.664z M256,490.664c-52.938,0-96-43.063-96-96s43.063-96,96-96s96,43.063,96,96 S308.938,490.664,256,490.664z M405.271,362.559c-4.5,12.823-16.646,21.438-30.208,21.438h-2.27 C367.378,324.286,317.087,277.33,256,277.33s-111.378,46.956-116.793,106.667h-2.27c-13.563,0-25.708-8.615-30.208-21.427 L47.029,191.997h417.943L405.271,362.559z"/><path d="M295.542,355.122c-4.167-4.167-10.917-4.167-15.083,0L256,379.58l-24.458-24.458c-4.167-4.167-10.917-4.167-15.083,0 c-4.167,4.167-4.167,10.917,0,15.083l24.458,24.458l-24.458,24.458c-4.167,4.167-4.167,10.917,0,15.083 c2.083,2.083,4.813,3.125,7.542,3.125s5.458-1.042,7.542-3.125L256,409.747l24.458,24.458c2.083,2.083,4.813,3.125,7.542,3.125 s5.458-1.042,7.542-3.125c4.167-4.167,4.167-10.917,0-15.083l-24.458-24.458l24.458-24.458 C299.708,366.039,299.708,359.289,295.542,355.122z"/></g></g></g></svg>