<svg width="40" version="1.1" id="Capa_1" xmlns="http://www.w3.org/2000/svg" xmlns:xlink="http://www.w3.org/1999/xlink" x="0px" y="0px" viewBox="0 0 426.667 426.667" style="enable-background:new 0 0 426.667 426.667;" xml:space="preserve"><g><g><g><path d="M42.667,213.333C42.667,125.867,108.8,55.467,192,44.8V2.133C85.333,12.8,0,102.4,0,213.333s85.333,200.533,192,211.2 v-42.667C108.8,371.2,42.667,298.667,42.667,213.333z"/><path d="M234.667,2.133V44.8C317.867,55.467,384,128,384,213.333c0,87.467-66.133,157.867-149.333,168.533v42.667 c106.667-10.667,192-102.4,192-211.2C426.667,102.4,341.333,12.8,234.667,2.133z"/><path d="M296.533,192H339.2c-10.667-59.733-61.867-106.667-125.867-106.667S98.133,132.267,87.467,192h42.667 c10.667-36.267,42.667-64,83.2-64S285.867,155.733,296.533,192z"/><path d="M339.2,234.667h-42.667c-10.667,36.267-42.667,64-83.2,64s-72.533-27.733-83.2-64H87.467 c10.667,59.733,61.867,106.667,125.867,106.667S328.533,294.4,339.2,234.667z"/><circle cx="213.333" cy="213.333" r="42.667"/></g></g></g></svg>