<svg width="22" version="1.1" id="Layer_1" xmlns="http://www.w3.org/2000/svg" xmlns:xlink="http://www.w3.org/1999/xlink" x="0px" y="0px" viewBox="0 0 329.927 329.927" style="enable-background:new 0 0 329.927 329.927;" xml:space="preserve"><path id="XMLID_462_" d="M329.927,110.857c0-54.646-42.805-97.451-97.449-97.451c-24.561,0-48.826,9.248-67.511,25.279 c-18.689-16.032-42.955-25.279-67.517-25.279C42.806,13.406,0,56.211,0,110.857c0,66.055,45.991,106.43,115.606,167.545 c5.95,5.223,12.09,10.613,18.407,16.2c0.044,0.039,0.087,0.077,0.132,0.115l21.018,18.156c2.816,2.433,6.311,3.649,9.805,3.649 c3.496,0,6.991-1.217,9.807-3.65l21.014-18.156c0.045-0.038,0.088-0.076,0.131-0.114c41.605-36.796,72.801-64.965,95.371-92.439 C317.649,170.074,329.927,141.061,329.927,110.857z" fill="#000000" style="fill: rgb(255, 56, 92);"></path></svg>