<svg width="22" version="1.1" id="Layer_1" xmlns="http://www.w3.org/2000/svg" xmlns:xlink="http://www.w3.org/1999/xlink" x="0px" y="0px" viewBox="0 0 329.927 329.927" style="enable-background:new 0 0 329.927 329.927;" xml:space="preserve"><path id="XMLID_506_" d="M232.478,13.406c-24.561,0-48.827,9.248-67.511,25.279c-18.688-16.032-42.955-25.279-67.516-25.279 C42.806,13.406,0,56.212,0,110.857c0,66.055,45.991,106.43,115.607,167.545c5.95,5.223,12.089,10.613,18.407,16.2 c0.044,0.039,0.087,0.077,0.131,0.115l21.018,18.156c2.816,2.433,6.311,3.649,9.806,3.649s6.991-1.217,9.807-3.65l21.014-18.156 c0.044-0.038,0.087-0.076,0.13-0.114c41.606-36.796,72.801-64.965,95.371-92.439c26.36-32.088,38.637-61.101,38.637-91.305 C329.927,56.212,287.123,13.406,232.478,13.406z M176.108,272.074l-11.141,9.625l-11.145-9.628 c-6.323-5.591-12.468-10.986-18.423-16.214C69.672,198.157,30,163.328,30,110.857c0-38.454,28.998-67.451,67.451-67.451 c20.925,0,42.408,10.03,56.065,26.176c2.85,3.37,7.04,5.313,11.454,5.313c4.414,0,8.603-1.944,11.453-5.315 c13.651-16.145,35.131-26.174,56.056-26.174c38.452,0,67.449,28.997,67.449,67.451C299.927,160.156,255.191,202.132,176.108,272.074 z"/></svg>