<svg  width="40" viewBox="0 -61 512 512" xmlns="http://www.w3.org/2000/svg"><path d="m509.480469 186.679688-.023438-.03125c-.011719-.019532-.023437-.039063-.035156-.058594l-59.941406-89.910156c-2.78125-4.171876-7.464844-6.679688-12.480469-6.679688h-105v-75c0-8.285156-6.714844-15-15-15h-302c-8.285156 0-15 6.714844-15 15v300c0 8.285156 6.714844 15 15 15h46c0 10.925781 2.949219 21.167969 8.070312 30h-54.070312c-8.285156 0-15 6.714844-15 15s6.714844 15 15 15h482c8.285156 0 15-6.714844 15-15s-6.714844-15-15-15h-53.070312c5.121093-8.832031 8.070312-19.074219 8.070312-30h45c8.285156 0 15-6.714844 15-15v-120c0-2.964844-.949219-5.964844-2.519531-8.320312zm-177.480469-66.679688h96.972656l40 60h-136.972656zm-211 240c-16.542969 0-30-13.457031-30-30s13.457031-30 30-30 30 13.457031 30 30-13.457031 30-30 30zm0-90c-22.160156 0-41.535156 12.085938-51.929688 30h-39.070312v-270h272v270h-129.070312c-10.394532-17.914062-29.769532-30-51.929688-30zm51.929688 90c5.121093-8.832031 8.070312-19.074219 8.070312-30h151c0 10.925781 2.949219 21.167969 8.070312 30zm219.070312 0c-16.542969 0-30-13.457031-30-30s13.457031-30 30-30 30 13.457031 30 30-13.457031 30-30 30zm90-120h-30c-8.285156 0-15 6.714844-15 15s6.714844 15 15 15h30v30h-38.070312c-10.394532-17.914062-29.769532-30-51.929688-30s-41.535156 12.085938-51.929688 30h-8.070312v-90h150zm0 0"/><path d="m271 165c0-57.898438-47.101562-105-105-105s-105 47.101562-105 105 47.101562 105 105 105 105-47.101562 105-105zm-105 75c-41.355469 0-75-33.644531-75-75s33.644531-75 75-75 75 33.644531 75 75-33.644531 75-75 75zm0 0"/><path d="m151 105v60c0 8.285156 6.714844 15 15 15h60c8.285156 0 15-6.714844 15-15s-6.714844-15-15-15h-45v-45c0-8.285156-6.714844-15-15-15s-15 6.714844-15 15zm0 0"/></svg>