<svg width="30" fill="gray" viewBox="0 0 24 24" xmlns="http://www.w3.org/2000/svg"><path clip-rule="evenodd" d="m14.385 15.4458c-2.6502 2.1227-6.52968 1.9556-8.98646-.5012-2.63604-2.636-2.63604-6.9099 0-9.54594s6.90986-2.63604 9.54596 0c2.4568 2.45678 2.6238 6.33624.5012 8.98644l5.1556 5.1557c.2929.2929.2929.7677 0 1.0606s-.7678.2929-1.0606 0zm-7.9258-1.5619c-2.05025-2.0502-2.05025-5.37433 0-7.42458s5.3744-2.05025 7.4246 0c2.0488 2.04875 2.0503 5.36948.0045 7.42008-.0015.0015-.003.003-.0045.0045s-.003.003-.0045.0045c-2.0506 2.0458-5.37135 2.0443-7.4201-.0045z"  fill-rule="evenodd"/></svg>